# xmcd CD database file
#
# Track frame offsets:
#	151
#	15216
#	28083
#	42010
#	57469
#	71952
#	84543
#	100450
#	114057
#	127236
#	141005
#	156946
#	174341
#	189028
#	205313
#	221762
#	236379
#	250956
#	264805
#
# Disc length: 3775 seconds
#
# Revision: 0
# Processed by: cddbd v1.5.1PL0 Copyright (c) Steve Scherf et al.
# Submitted via: CDex 1.50beta9
#
DISCID=030ebd13
DTITLE=Los Tigres Del Norte - Solo Corridos+
DYEAR=1900
DGENRE=Country
TTITLE0=De Paisano A Paisano
TTITLE1=Tres Veces Mojado
TTITLE2=La Banda Del Carro Rojo
TTITLE3=Contrabando Y Traicion
TTITLE4=Ya Encontraron A Camelia
TTITLE5=Circo
TTITLE6=Jefe De Jefes
TTITLE7=Contrabando Y Robo
TTITLE8=La Muerte Del Soplon
TTITLE9=Vivan Los Mojados
TTITLE10=Los Dos Plebes
TTITLE11=Los Tres Amigos
TTITLE12=La Camioneta Gris
TTITLE13=El Tahur
TTITLE14=El Mojado Acaudalado
TTITLE15=La Fuga Del Rojo
TTITLE16=La Liebre
TTITLE17=Carrera Contra La Muerte
TTITLE18=El Soplon
EXTD=
EXTT0=
EXTT1=
EXTT2=
EXTT3=
EXTT4=
EXTT5=
EXTT6=
EXTT7=
EXTT8=
EXTT9=
EXTT10=
EXTT11=
EXTT12=
EXTT13=
EXTT14=
EXTT15=
EXTT16=
EXTT17=
EXTT18=
PLAYORDER=
